<svg width="584" height="455" viewBox="0 0 584 455" fill="none" xmlns="http://www.w3.org/2000/svg">
<rect x="109" y="76" width="319" height="239" rx="16" fill="#F0F2F9"/>
<g filter="url(#filter0_d)">
<rect x="24" y="255" width="244" height="142" rx="12" fill="white"/>
<rect x="24.5" y="255.5" width="243" height="141" rx="11.5" stroke="#F0F2F9"/>
</g>
<g filter="url(#filter1_d)">
<rect x="75" width="213" height="152" rx="12" fill="white"/>
<rect x="75.5" y="0.5" width="212" height="151" rx="11.5" stroke="#F0F2F9"/>
</g>
<g filter="url(#filter2_d)">
<rect x="312" y="128" width="248" height="146" rx="12" fill="white"/>
<rect x="312.5" y="128.5" width="247" height="145" rx="11.5" stroke="#F0F2F9"/>
</g>
<path d="M119.293 54.435C120.985 54.153 122.599 54.012 124.134 54.012C127.299 54.012 129.821 54.7797 131.701 56.315C133.581 57.819 134.521 59.9967 134.521 62.848C134.521 65.95 133.471 68.5037 131.372 70.509C129.147 72.6083 126.343 73.658 122.959 73.658C119.606 73.658 116.927 72.812 114.922 71.12C112.823 69.3653 111.742 66.9527 111.679 63.882H117.366C117.366 65.48 117.899 66.655 118.964 67.407C120.029 68.159 121.392 68.535 123.053 68.535C124.714 68.535 126.077 68.0023 127.142 66.937C128.239 65.8403 128.787 64.4773 128.787 62.848C128.787 59.746 126.688 58.195 122.489 58.195H113.183L114.593 42.497H132.876V47.573H119.951L119.293 54.435ZM156.33 50.863C156.174 49.641 155.735 48.6853 155.014 47.996C154.294 47.2753 153.291 46.915 152.006 46.915C150.753 46.915 149.641 47.197 148.669 47.761C147.729 48.2937 146.915 49.077 146.225 50.111C144.847 52.2417 144.157 55.1243 144.157 58.759C144.157 60.1063 144.204 61.1247 144.298 61.814C144.643 59.1193 145.661 57.1453 147.353 55.892C148.826 54.8267 150.659 54.294 152.852 54.294C155.672 54.294 158.007 55.2027 159.855 57.02C161.673 58.7747 162.581 61.0933 162.581 63.976C162.581 66.8587 161.563 69.193 159.526 70.979C157.49 72.765 154.826 73.658 151.536 73.658C147.714 73.658 144.596 72.2167 142.183 69.334C139.771 66.4513 138.564 62.7697 138.564 58.289C138.564 53.0877 139.771 49.03 142.183 46.116C144.533 43.296 147.729 41.886 151.771 41.886C154.842 41.886 157.317 42.7007 159.197 44.33C161.109 45.9907 162.127 48.1683 162.252 50.863H156.33ZM151.536 58.853C150.032 58.853 148.763 59.3073 147.729 60.216C146.727 61.0933 146.225 62.2683 146.225 63.741C146.225 65.2137 146.727 66.3887 147.729 67.266C148.763 68.112 150.017 68.535 151.489 68.535C152.993 68.535 154.262 68.112 155.296 67.266C156.33 66.3887 156.847 65.2137 156.847 63.741C156.847 62.2683 156.315 61.062 155.249 60.122C154.278 59.276 153.04 58.853 151.536 58.853ZM180.461 49.923V59.041H189.626V63.882H180.461V73H174.915V63.882H165.75V59.041H174.915V49.923H180.461Z" fill="#2B3144"/>
<path d="M111.808 94.017L116.371 101.82L121.042 94.017H123.553L117.451 104.034V111H115.291V104.034L109.27 94.017H111.808ZM129.234 109.569C131.016 109.569 132.033 108.786 132.285 107.22H134.472C134.274 108.516 133.698 109.524 132.744 110.244C131.808 110.946 130.638 111.297 129.234 111.297C127.506 111.297 126.102 110.685 125.022 109.461C123.942 108.219 123.402 106.572 123.402 104.52C123.402 102.468 123.942 100.83 125.022 99.606C126.12 98.382 127.569 97.77 129.369 97.77C131.187 97.77 132.537 98.472 133.419 99.876C134.319 101.28 134.634 102.99 134.364 105.006H125.535C125.535 106.338 125.859 107.436 126.507 108.3C127.155 109.146 128.064 109.569 129.234 109.569ZM130.8 99.795C130.386 99.579 129.882 99.471 129.288 99.471C128.19 99.471 127.317 99.849 126.669 100.605C126.039 101.343 125.67 102.27 125.562 103.386H132.447C132.447 101.586 131.898 100.389 130.8 99.795ZM146.666 102.63C146.666 101.46 146.423 100.623 145.937 100.119C145.451 99.615 144.74 99.363 143.804 99.363C142.886 99.363 142.139 99.552 141.563 99.93C141.005 100.29 140.726 100.866 140.726 101.658H138.377C138.377 99.678 139.439 98.454 141.563 97.986C142.211 97.842 142.913 97.77 143.669 97.77C145.271 97.77 146.522 98.175 147.422 98.985C148.322 99.795 148.772 101.028 148.772 102.684V111H146.936L146.72 108.84C145.928 110.478 144.497 111.297 142.427 111.297C141.041 111.297 139.925 110.91 139.079 110.136C138.251 109.362 137.837 108.399 137.837 107.247C137.837 106.095 138.296 105.195 139.214 104.547C140.15 103.899 141.311 103.575 142.697 103.575C144.083 103.575 145.406 103.809 146.666 104.277V102.63ZM146.666 105.627C145.388 105.267 144.272 105.087 143.318 105.087C142.364 105.087 141.59 105.258 140.996 105.6C140.402 105.942 140.105 106.482 140.105 107.22C140.105 108.84 141.023 109.65 142.859 109.65C143.903 109.65 144.794 109.281 145.532 108.543C146.288 107.787 146.666 106.815 146.666 105.627ZM159.048 99.903C157.014 99.903 155.961 101.505 155.889 104.709V111H153.756V98.067H155.889V100.551C156.537 98.751 157.68 97.851 159.318 97.851C159.84 97.851 160.335 97.932 160.803 98.094L160.695 100.173C160.155 99.993 159.606 99.903 159.048 99.903ZM163.391 101.253C163.391 100.191 163.841 99.345 164.741 98.715C165.659 98.085 166.892 97.77 168.44 97.77C169.988 97.77 171.194 98.094 172.058 98.742C172.94 99.39 173.399 100.209 173.435 101.199H171.356C171.194 100.029 170.204 99.444 168.386 99.444C167.504 99.444 166.82 99.642 166.334 100.038C165.866 100.434 165.632 100.866 165.632 101.334C165.632 101.784 165.812 102.171 166.172 102.495C166.532 102.801 167.108 103.071 167.9 103.305L170.492 104.169C171.59 104.511 172.427 104.952 173.003 105.492C173.597 106.014 173.894 106.743 173.894 107.679C173.894 108.597 173.417 109.434 172.463 110.19C171.509 110.928 170.177 111.297 168.467 111.297C166.757 111.297 165.425 110.919 164.471 110.163C163.517 109.389 163.013 108.399 162.959 107.193H165.011C165.047 108.003 165.371 108.615 165.983 109.029C166.613 109.425 167.396 109.623 168.332 109.623C169.268 109.623 170.042 109.425 170.654 109.029C171.266 108.633 171.572 108.165 171.572 107.625C171.572 107.067 171.392 106.644 171.032 106.356C170.672 106.068 170.087 105.816 169.277 105.6L166.766 104.763C164.516 104.097 163.391 102.927 163.391 101.253Z" fill="#2B3144"/>
<path d="M354.366 188.924H371.803V194H348.82V188.783C348.82 185.117 350.12 182.454 352.721 180.793C353.598 180.229 354.617 179.728 355.776 179.289L362.027 176.892C363.406 176.359 364.408 175.701 365.035 174.918C365.693 174.103 366.022 173.101 366.022 171.91C366.022 170.719 365.599 169.732 364.753 168.949C363.907 168.134 362.701 167.727 361.134 167.727C359.567 167.727 358.267 168.103 357.233 168.855C356.23 169.607 355.651 170.719 355.494 172.192H349.337C349.4 169.215 350.543 166.881 352.768 165.189C354.805 163.654 357.546 162.886 360.993 162.886C364.158 162.886 366.774 163.732 368.842 165.424C370.941 167.179 371.991 169.325 371.991 171.863C371.991 174.401 371.349 176.438 370.064 177.973C368.811 179.477 366.852 180.746 364.189 181.78L357.844 184.224C356.622 184.694 355.729 185.227 355.165 185.822C354.632 186.386 354.366 187.122 354.366 188.031V188.924ZM394.432 171.863C394.275 170.641 393.837 169.685 393.116 168.996C392.395 168.275 391.393 167.915 390.108 167.915C388.855 167.915 387.742 168.197 386.771 168.761C385.831 169.294 385.016 170.077 384.327 171.111C382.948 173.242 382.259 176.124 382.259 179.759C382.259 181.106 382.306 182.125 382.4 182.814C382.745 180.119 383.763 178.145 385.455 176.892C386.928 175.827 388.761 175.294 390.954 175.294C393.774 175.294 396.108 176.203 397.957 178.02C399.774 179.775 400.683 182.093 400.683 184.976C400.683 187.859 399.665 190.193 397.628 191.979C395.591 193.765 392.928 194.658 389.638 194.658C385.815 194.658 382.698 193.217 380.285 190.334C377.872 187.451 376.666 183.77 376.666 179.289C376.666 174.088 377.872 170.03 380.285 167.116C382.635 164.296 385.831 162.886 389.873 162.886C392.944 162.886 395.419 163.701 397.299 165.33C399.21 166.991 400.229 169.168 400.354 171.863H394.432ZM389.638 179.853C388.134 179.853 386.865 180.307 385.831 181.216C384.828 182.093 384.327 183.268 384.327 184.741C384.327 186.214 384.828 187.389 385.831 188.266C386.865 189.112 388.118 189.535 389.591 189.535C391.095 189.535 392.364 189.112 393.398 188.266C394.432 187.389 394.949 186.214 394.949 184.741C394.949 183.268 394.416 182.062 393.351 181.122C392.38 180.276 391.142 179.853 389.638 179.853ZM408.458 194.235C407.581 194.078 406.829 193.734 406.202 193.201C405.607 192.637 405.309 191.901 405.309 190.992C405.309 190.052 405.669 189.253 406.39 188.595C407.111 187.937 408.098 187.608 409.351 187.608C410.604 187.608 411.623 188.094 412.406 189.065C413.189 190.036 413.581 191.227 413.581 192.637C413.581 194.924 412.547 197.008 410.479 198.888C409.821 199.483 409.085 199.985 408.27 200.392L404.134 198.324C405.168 197.791 406.077 197.196 406.86 196.538C407.675 195.88 408.207 195.112 408.458 194.235ZM429.746 162.886C431.626 162.886 433.333 163.215 434.869 163.873C436.435 164.5 437.767 165.471 438.864 166.787C441.245 169.576 442.436 173.571 442.436 178.772C442.436 183.973 441.245 187.968 438.864 190.757C436.67 193.358 433.647 194.658 429.793 194.658C425.907 194.658 422.852 193.358 420.628 190.757C418.278 188.031 417.103 184.036 417.103 178.772C417.103 173.508 418.278 169.513 420.628 166.787C422.852 164.186 425.892 162.886 429.746 162.886ZM436.702 178.772C436.702 175.263 436.091 172.584 434.869 170.735C433.678 168.855 431.97 167.915 429.746 167.915C427.552 167.915 425.845 168.855 424.623 170.735C423.432 172.584 422.837 175.263 422.837 178.772C422.837 182.281 423.432 184.96 424.623 186.809C425.845 188.626 427.552 189.535 429.746 189.535C431.97 189.535 433.678 188.626 434.869 186.809C436.091 184.96 436.702 182.281 436.702 178.772ZM459.488 162.886C461.368 162.886 463.075 163.215 464.611 163.873C466.177 164.5 467.509 165.471 468.606 166.787C470.987 169.576 472.178 173.571 472.178 178.772C472.178 183.973 470.987 187.968 468.606 190.757C466.412 193.358 463.389 194.658 459.535 194.658C455.649 194.658 452.594 193.358 450.37 190.757C448.02 188.031 446.845 184.036 446.845 178.772C446.845 173.508 448.02 169.513 450.37 166.787C452.594 164.186 455.634 162.886 459.488 162.886ZM466.444 178.772C466.444 175.263 465.833 172.584 464.611 170.735C463.42 168.855 461.712 167.915 459.488 167.915C457.294 167.915 455.587 168.855 454.365 170.735C453.174 172.584 452.579 175.263 452.579 178.772C452.579 182.281 453.174 184.96 454.365 186.809C455.587 188.626 457.294 189.535 459.488 189.535C461.712 189.535 463.42 188.626 464.611 186.809C465.833 184.96 466.444 182.281 466.444 178.772ZM489.23 162.886C491.11 162.886 492.818 163.215 494.353 163.873C495.92 164.5 497.251 165.471 498.348 166.787C500.729 169.576 501.92 173.571 501.92 178.772C501.92 183.973 500.729 187.968 498.348 190.757C496.155 193.358 493.131 194.658 489.277 194.658C485.392 194.658 482.337 193.358 480.112 190.757C477.762 188.031 476.587 184.036 476.587 178.772C476.587 173.508 477.762 169.513 480.112 166.787C482.337 164.186 485.376 162.886 489.23 162.886ZM496.186 178.772C496.186 175.263 495.575 172.584 494.353 170.735C493.162 168.855 491.455 167.915 489.23 167.915C487.037 167.915 485.329 168.855 484.107 170.735C482.916 172.584 482.321 175.263 482.321 178.772C482.321 182.281 482.916 184.96 484.107 186.809C485.329 188.626 487.037 189.535 489.23 189.535C491.455 189.535 493.162 188.626 494.353 186.809C495.575 184.96 496.186 182.281 496.186 178.772ZM519.677 170.923V180.041H528.842V184.882H519.677V194H514.131V184.882H504.966V180.041H514.131V170.923H519.677Z" fill="#2B3144"/>
<path d="M350.86 215.017V222.496H359.203V215.017H361.336V232H359.203V224.332H350.86V232H348.727V215.017H350.86ZM371.433 218.77C373.233 218.77 374.682 219.355 375.78 220.525C376.896 221.695 377.454 223.369 377.454 225.547C377.454 227.707 376.896 229.372 375.78 230.542C374.682 231.712 373.233 232.297 371.433 232.297C369.633 232.297 368.175 231.712 367.059 230.542C365.961 229.372 365.412 227.707 365.412 225.547C365.412 223.369 365.961 221.695 367.059 220.525C368.175 219.355 369.633 218.77 371.433 218.77ZM375.294 225.547C375.294 223.999 374.97 222.793 374.322 221.929C373.674 221.047 372.72 220.606 371.46 220.606C370.218 220.606 369.264 221.047 368.598 221.929C367.932 222.793 367.599 223.999 367.599 225.547C367.599 227.077 367.914 228.283 368.544 229.165C369.174 230.029 370.11 230.461 371.352 230.461C372.612 230.461 373.584 230.029 374.268 229.165C374.952 228.283 375.294 227.077 375.294 225.547ZM390.303 229.435C389.421 231.307 387.99 232.243 386.01 232.243C384.552 232.243 383.373 231.838 382.473 231.028C381.591 230.218 381.15 228.967 381.15 227.275V219.067H383.283V227.113C383.283 229.291 384.291 230.38 386.307 230.38C387.477 230.38 388.422 229.93 389.142 229.03C389.88 228.13 390.267 226.978 390.303 225.574V219.067H392.436V232H390.303V229.435ZM397.227 222.253C397.227 221.191 397.677 220.345 398.577 219.715C399.495 219.085 400.728 218.77 402.276 218.77C403.824 218.77 405.03 219.094 405.894 219.742C406.776 220.39 407.235 221.209 407.271 222.199H405.192C405.03 221.029 404.04 220.444 402.222 220.444C401.34 220.444 400.656 220.642 400.17 221.038C399.702 221.434 399.468 221.866 399.468 222.334C399.468 222.784 399.648 223.171 400.008 223.495C400.368 223.801 400.944 224.071 401.736 224.305L404.328 225.169C405.426 225.511 406.263 225.952 406.839 226.492C407.433 227.014 407.73 227.743 407.73 228.679C407.73 229.597 407.253 230.434 406.299 231.19C405.345 231.928 404.013 232.297 402.303 232.297C400.593 232.297 399.261 231.919 398.307 231.163C397.353 230.389 396.849 229.399 396.795 228.193H398.847C398.883 229.003 399.207 229.615 399.819 230.029C400.449 230.425 401.232 230.623 402.168 230.623C403.104 230.623 403.878 230.425 404.49 230.029C405.102 229.633 405.408 229.165 405.408 228.625C405.408 228.067 405.228 227.644 404.868 227.356C404.508 227.068 403.923 226.816 403.113 226.6L400.602 225.763C398.352 225.097 397.227 223.927 397.227 222.253ZM416.569 230.569C418.351 230.569 419.368 229.786 419.62 228.22H421.807C421.609 229.516 421.033 230.524 420.079 231.244C419.143 231.946 417.973 232.297 416.569 232.297C414.841 232.297 413.437 231.685 412.357 230.461C411.277 229.219 410.737 227.572 410.737 225.52C410.737 223.468 411.277 221.83 412.357 220.606C413.455 219.382 414.904 218.77 416.704 218.77C418.522 218.77 419.872 219.472 420.754 220.876C421.654 222.28 421.969 223.99 421.699 226.006H412.87C412.87 227.338 413.194 228.436 413.842 229.3C414.49 230.146 415.399 230.569 416.569 230.569ZM418.135 220.795C417.721 220.579 417.217 220.471 416.623 220.471C415.525 220.471 414.652 220.849 414.004 221.605C413.374 222.343 413.005 223.27 412.897 224.386H419.782C419.782 222.586 419.233 221.389 418.135 220.795ZM441.218 229.435C440.336 231.307 438.905 232.243 436.925 232.243C435.467 232.243 434.288 231.838 433.388 231.028C432.506 230.218 432.065 228.967 432.065 227.275V219.067H434.198V227.113C434.198 229.291 435.206 230.38 437.222 230.38C438.392 230.38 439.337 229.93 440.057 229.03C440.795 228.13 441.182 226.978 441.218 225.574V219.067H443.351V232H441.218V229.435ZM450.869 221.578C451.715 219.706 453.164 218.77 455.216 218.77C456.746 218.77 457.934 219.274 458.78 220.282C459.644 221.29 460.076 222.667 460.076 224.413V232H457.97V224.413C457.97 223.171 457.673 222.235 457.079 221.605C456.503 220.975 455.675 220.66 454.595 220.66C453.515 220.66 452.642 221.101 451.976 221.983C451.31 222.865 450.959 224.089 450.923 225.655V232H448.79V219.094H450.626L450.869 221.578ZM465.22 219.067H467.353V232H465.22V219.067ZM466.273 216.043C465.841 216.043 465.499 215.926 465.247 215.692C465.013 215.44 464.896 215.116 464.896 214.72C464.896 214.306 465.013 213.982 465.247 213.748C465.499 213.496 465.841 213.37 466.273 213.37C466.705 213.37 467.047 213.496 467.299 213.748C467.569 213.982 467.704 214.306 467.704 214.72C467.704 215.116 467.569 215.44 467.299 215.692C467.047 215.926 466.705 216.043 466.273 216.043ZM479.904 231.622C478.356 232.342 476.943 232.495 475.665 232.081C474.747 231.793 474.099 231.19 473.721 230.272C473.523 229.822 473.424 229.282 473.424 228.652V220.714H471.345V219.094H473.424V215.503H475.53V219.094H479.58V220.714H475.53V228.625C475.53 229.939 476.142 230.596 477.366 230.596C478.032 230.596 478.779 230.434 479.607 230.11L479.904 231.622ZM482.63 222.253C482.63 221.191 483.08 220.345 483.98 219.715C484.898 219.085 486.131 218.77 487.679 218.77C489.227 218.77 490.433 219.094 491.297 219.742C492.179 220.39 492.638 221.209 492.674 222.199H490.595C490.433 221.029 489.443 220.444 487.625 220.444C486.743 220.444 486.059 220.642 485.573 221.038C485.105 221.434 484.871 221.866 484.871 222.334C484.871 222.784 485.051 223.171 485.411 223.495C485.771 223.801 486.347 224.071 487.139 224.305L489.731 225.169C490.829 225.511 491.666 225.952 492.242 226.492C492.836 227.014 493.133 227.743 493.133 228.679C493.133 229.597 492.656 230.434 491.702 231.19C490.748 231.928 489.416 232.297 487.706 232.297C485.996 232.297 484.664 231.919 483.71 231.163C482.756 230.389 482.252 229.399 482.198 228.193H484.25C484.286 229.003 484.61 229.615 485.222 230.029C485.852 230.425 486.635 230.623 487.571 230.623C488.507 230.623 489.281 230.425 489.893 230.029C490.505 229.633 490.811 229.165 490.811 228.625C490.811 228.067 490.631 227.644 490.271 227.356C489.911 227.068 489.326 226.816 488.516 226.6L486.005 225.763C483.755 225.097 482.63 223.927 482.63 222.253Z" fill="#2B3144"/>
<path d="M77.996 289.168V308.485H83.307V313.232H77.996V320H72.497V313.232H57.034V309.049L72.638 289.168H77.996ZM63.614 309.049H72.779V297.393L63.614 309.049ZM92.3181 314.924H109.755V320H86.7721V314.783C86.7721 311.117 88.0725 308.454 90.6731 306.793C91.5505 306.229 92.5688 305.728 93.7281 305.289L99.9791 302.892C101.358 302.359 102.36 301.701 102.987 300.918C103.645 300.103 103.974 299.101 103.974 297.91C103.974 296.719 103.551 295.732 102.705 294.949C101.859 294.134 100.653 293.727 99.0861 293.727C97.5195 293.727 96.2191 294.103 95.1851 294.855C94.1825 295.607 93.6028 296.719 93.4461 298.192H87.2891C87.3518 295.215 88.4955 292.881 90.7201 291.189C92.7568 289.654 95.4985 288.886 98.9451 288.886C102.11 288.886 104.726 289.732 106.794 291.424C108.893 293.179 109.943 295.325 109.943 297.863C109.943 300.401 109.301 302.438 108.016 303.973C106.763 305.477 104.804 306.746 102.141 307.78L95.7961 310.224C94.5741 310.694 93.6811 311.227 93.1171 311.822C92.5845 312.386 92.3181 313.122 92.3181 314.031V314.924ZM117.861 320.235C116.984 320.078 116.232 319.734 115.605 319.201C115.01 318.637 114.712 317.901 114.712 316.992C114.712 316.052 115.073 315.253 115.793 314.595C116.514 313.937 117.501 313.608 118.754 313.608C120.008 313.608 121.026 314.094 121.809 315.065C122.593 316.036 122.984 317.227 122.984 318.637C122.984 320.924 121.95 323.008 119.882 324.888C119.224 325.483 118.488 325.985 117.673 326.392L113.537 324.324C114.571 323.791 115.48 323.196 116.263 322.538C117.078 321.88 117.611 321.112 117.861 320.235ZM139.149 288.886C141.029 288.886 142.737 289.215 144.272 289.873C145.839 290.5 147.17 291.471 148.267 292.787C150.648 295.576 151.839 299.571 151.839 304.772C151.839 309.973 150.648 313.968 148.267 316.757C146.074 319.358 143.05 320.658 139.196 320.658C135.311 320.658 132.256 319.358 130.031 316.757C127.681 314.031 126.506 310.036 126.506 304.772C126.506 299.508 127.681 295.513 130.031 292.787C132.256 290.186 135.295 288.886 139.149 288.886ZM146.105 304.772C146.105 301.263 145.494 298.584 144.272 296.735C143.081 294.855 141.374 293.915 139.149 293.915C136.956 293.915 135.248 294.855 134.026 296.735C132.835 298.584 132.24 301.263 132.24 304.772C132.24 308.281 132.835 310.96 134.026 312.809C135.248 314.626 136.956 315.535 139.149 315.535C141.374 315.535 143.081 314.626 144.272 312.809C145.494 310.96 146.105 308.281 146.105 304.772ZM168.891 288.886C170.771 288.886 172.479 289.215 174.014 289.873C175.581 290.5 176.912 291.471 178.009 292.787C180.39 295.576 181.581 299.571 181.581 304.772C181.581 309.973 180.39 313.968 178.009 316.757C175.816 319.358 172.792 320.658 168.938 320.658C165.053 320.658 161.998 319.358 159.773 316.757C157.423 314.031 156.248 310.036 156.248 304.772C156.248 299.508 157.423 295.513 159.773 292.787C161.998 290.186 165.037 288.886 168.891 288.886ZM175.847 304.772C175.847 301.263 175.236 298.584 174.014 296.735C172.823 294.855 171.116 293.915 168.891 293.915C166.698 293.915 164.99 294.855 163.768 296.735C162.577 298.584 161.982 301.263 161.982 304.772C161.982 308.281 162.577 310.96 163.768 312.809C164.99 314.626 166.698 315.535 168.891 315.535C171.116 315.535 172.823 314.626 174.014 312.809C175.236 310.96 175.847 308.281 175.847 304.772ZM198.633 288.886C200.513 288.886 202.221 289.215 203.756 289.873C205.323 290.5 206.655 291.471 207.751 292.787C210.133 295.576 211.323 299.571 211.323 304.772C211.323 309.973 210.133 313.968 207.751 316.757C205.558 319.358 202.534 320.658 198.68 320.658C194.795 320.658 191.74 319.358 189.515 316.757C187.165 314.031 185.99 310.036 185.99 304.772C185.99 299.508 187.165 295.513 189.515 292.787C191.74 290.186 194.779 288.886 198.633 288.886ZM205.589 304.772C205.589 301.263 204.978 298.584 203.756 296.735C202.566 294.855 200.858 293.915 198.633 293.915C196.44 293.915 194.732 294.855 193.51 296.735C192.32 298.584 191.724 301.263 191.724 304.772C191.724 308.281 192.32 310.96 193.51 312.809C194.732 314.626 196.44 315.535 198.633 315.535C200.858 315.535 202.566 314.626 203.756 312.809C204.978 310.96 205.589 308.281 205.589 304.772ZM229.08 296.923V306.041H238.245V310.882H229.08V320H223.534V310.882H214.369V306.041H223.534V296.923H229.08Z" fill="#2B3144"/>
<path d="M62.534 341.017H65.126L70.823 358H68.609L67.151 353.68H60.401L58.943 358H56.702L62.534 341.017ZM60.968 352.006H66.611L63.803 343.636L60.968 352.006ZM78.5503 344.77C80.0803 344.77 81.2953 345.166 82.1953 345.958C83.0953 346.732 83.6803 347.704 83.9503 348.874L81.7903 349.063C81.5563 348.307 81.1783 347.722 80.6563 347.308C80.1343 346.876 79.5583 346.66 78.9283 346.66C77.7763 346.66 76.8403 347.092 76.1203 347.956C75.4183 348.82 75.0673 349.999 75.0673 351.493C75.0673 352.969 75.4093 354.157 76.0933 355.057C76.7953 355.957 77.6593 356.407 78.6853 356.407C79.7293 356.407 80.5033 356.173 81.0073 355.705C81.5293 355.219 81.7903 354.535 81.7903 353.653H83.9773C83.9773 355.039 83.4913 356.164 82.5193 357.028C81.5653 357.874 80.3143 358.297 78.7663 358.297C77.1283 358.297 75.7333 357.676 74.5813 356.434C73.4473 355.192 72.8803 353.545 72.8803 351.493C72.8803 349.423 73.4473 347.785 74.5813 346.579C75.7153 345.373 77.0383 344.77 78.5503 344.77ZM93.4178 346.903C91.3838 346.903 90.3308 348.505 90.2588 351.709V358H88.1258V345.067H90.2588V347.551C90.9068 345.751 92.0498 344.851 93.6878 344.851C94.2098 344.851 94.7048 344.932 95.1728 345.094L95.0648 347.173C94.5248 346.993 93.9758 346.903 93.4178 346.903ZM102.891 356.569C104.673 356.569 105.69 355.786 105.942 354.22H108.129C107.931 355.516 107.355 356.524 106.401 357.244C105.465 357.946 104.295 358.297 102.891 358.297C101.163 358.297 99.759 357.685 98.679 356.461C97.599 355.219 97.059 353.572 97.059 351.52C97.059 349.468 97.599 347.83 98.679 346.606C99.777 345.382 101.226 344.77 103.026 344.77C104.844 344.77 106.194 345.472 107.076 346.876C107.976 348.28 108.291 349.99 108.021 352.006H99.192C99.192 353.338 99.516 354.436 100.164 355.3C100.812 356.146 101.721 356.569 102.891 356.569ZM104.457 346.795C104.043 346.579 103.539 346.471 102.945 346.471C101.847 346.471 100.974 346.849 100.326 347.605C99.696 348.343 99.327 349.27 99.219 350.386H106.104C106.104 348.586 105.555 347.389 104.457 346.795ZM111.656 348.253C111.656 347.191 112.106 346.345 113.006 345.715C113.924 345.085 115.157 344.77 116.705 344.77C118.253 344.77 119.459 345.094 120.323 345.742C121.205 346.39 121.664 347.209 121.7 348.199H119.621C119.459 347.029 118.469 346.444 116.651 346.444C115.769 346.444 115.085 346.642 114.599 347.038C114.131 347.434 113.897 347.866 113.897 348.334C113.897 348.784 114.077 349.171 114.437 349.495C114.797 349.801 115.373 350.071 116.165 350.305L118.757 351.169C119.855 351.511 120.692 351.952 121.268 352.492C121.862 353.014 122.159 353.743 122.159 354.679C122.159 355.597 121.682 356.434 120.728 357.19C119.774 357.928 118.442 358.297 116.732 358.297C115.022 358.297 113.69 357.919 112.736 357.163C111.782 356.389 111.278 355.399 111.224 354.193H113.276C113.312 355.003 113.636 355.615 114.248 356.029C114.878 356.425 115.661 356.623 116.597 356.623C117.533 356.623 118.307 356.425 118.919 356.029C119.531 355.633 119.837 355.165 119.837 354.625C119.837 354.067 119.657 353.644 119.297 353.356C118.937 353.068 118.352 352.816 117.542 352.6L115.031 351.763C112.781 351.097 111.656 349.927 111.656 348.253ZM137.621 344.77C139.421 344.77 140.87 345.355 141.968 346.525C143.084 347.695 143.642 349.369 143.642 351.547C143.642 353.707 143.084 355.372 141.968 356.542C140.87 357.712 139.421 358.297 137.621 358.297C135.821 358.297 134.363 357.712 133.247 356.542C132.149 355.372 131.6 353.707 131.6 351.547C131.6 349.369 132.149 347.695 133.247 346.525C134.363 345.355 135.821 344.77 137.621 344.77ZM141.482 351.547C141.482 349.999 141.158 348.793 140.51 347.929C139.862 347.047 138.908 346.606 137.648 346.606C136.406 346.606 135.452 347.047 134.786 347.929C134.12 348.793 133.787 349.999 133.787 351.547C133.787 353.077 134.102 354.283 134.732 355.165C135.362 356.029 136.298 356.461 137.54 356.461C138.8 356.461 139.772 356.029 140.456 355.165C141.14 354.283 141.482 353.077 141.482 351.547ZM153.98 341.422C153.386 341.188 152.918 341.071 152.576 341.071C151.946 341.071 151.451 341.224 151.091 341.53C150.731 341.836 150.551 342.376 150.551 343.15V345.094H153.224V346.552H150.551V358H148.445V346.552H146.312V345.094H148.445V343.123C148.445 341.845 148.796 340.909 149.498 340.315C150.2 339.703 151.01 339.397 151.928 339.397C152.846 339.397 153.656 339.514 154.358 339.748L153.98 341.422ZM163.405 339.613H165.538V358H163.405V339.613ZM178.964 349.63C178.964 348.46 178.721 347.623 178.235 347.119C177.749 346.615 177.038 346.363 176.102 346.363C175.184 346.363 174.437 346.552 173.861 346.93C173.303 347.29 173.024 347.866 173.024 348.658H170.675C170.675 346.678 171.737 345.454 173.861 344.986C174.509 344.842 175.211 344.77 175.967 344.77C177.569 344.77 178.82 345.175 179.72 345.985C180.62 346.795 181.07 348.028 181.07 349.684V358H179.234L179.018 355.84C178.226 357.478 176.795 358.297 174.725 358.297C173.339 358.297 172.223 357.91 171.377 357.136C170.549 356.362 170.135 355.399 170.135 354.247C170.135 353.095 170.594 352.195 171.512 351.547C172.448 350.899 173.609 350.575 174.995 350.575C176.381 350.575 177.704 350.809 178.964 351.277V349.63ZM178.964 352.627C177.686 352.267 176.57 352.087 175.616 352.087C174.662 352.087 173.888 352.258 173.294 352.6C172.7 352.942 172.403 353.482 172.403 354.22C172.403 355.84 173.321 356.65 175.157 356.65C176.201 356.65 177.092 356.281 177.83 355.543C178.586 354.787 178.964 353.815 178.964 352.627ZM188.133 347.578C188.979 345.706 190.428 344.77 192.48 344.77C194.01 344.77 195.198 345.274 196.044 346.282C196.908 347.29 197.34 348.667 197.34 350.413V358H195.234V350.413C195.234 349.171 194.937 348.235 194.343 347.605C193.767 346.975 192.939 346.66 191.859 346.66C190.779 346.66 189.906 347.101 189.24 347.983C188.574 348.865 188.223 350.089 188.187 351.655V358H186.054V345.094H187.89L188.133 347.578ZM210.8 347.011V339.613H212.906V358H211.178L210.908 355.84C210.494 356.65 209.945 357.262 209.261 357.676C208.577 358.09 207.83 358.297 207.02 358.297C205.382 358.297 204.005 357.667 202.889 356.407C201.791 355.147 201.242 353.509 201.242 351.493C201.242 349.459 201.782 347.83 202.862 346.606C203.96 345.382 205.337 344.77 206.993 344.77C208.667 344.77 209.936 345.517 210.8 347.011ZM207.128 346.66C206.084 346.66 205.202 347.101 204.482 347.983C203.78 348.865 203.429 350.044 203.429 351.52C203.429 352.996 203.789 354.184 204.509 355.084C205.229 355.966 206.093 356.407 207.101 356.407C208.109 356.407 208.964 356.074 209.666 355.408C210.386 354.724 210.764 353.815 210.8 352.681V350.575C210.8 349.369 210.449 348.415 209.747 347.713C209.045 347.011 208.172 346.66 207.128 346.66Z" fill="#2B3144"/>
<defs>
<filter id="filter0_d" x="0" y="255" width="292" height="200" filterUnits="userSpaceOnUse" color-interpolation-filters="sRGB">
<feFlood flood-opacity="0" result="BackgroundImageFix"/>
<feColorMatrix in="SourceAlpha" type="matrix" values="0 0 0 0 0 0 0 0 0 0 0 0 0 0 0 0 0 0 127 0" result="hardAlpha"/>
<feMorphology radius="10" operator="erode" in="SourceAlpha" result="effect1_dropShadow"/>
<feOffset dy="34"/>
<feGaussianBlur stdDeviation="17"/>
<feColorMatrix type="matrix" values="0 0 0 0 0 0 0 0 0 0 0 0 0 0 0 0 0 0 0.11 0"/>
<feBlend mode="normal" in2="BackgroundImageFix" result="effect1_dropShadow"/>
<feBlend mode="normal" in="SourceGraphic" in2="effect1_dropShadow" result="shape"/>
</filter>
<filter id="filter1_d" x="51" y="0" width="261" height="210" filterUnits="userSpaceOnUse" color-interpolation-filters="sRGB">
<feFlood flood-opacity="0" result="BackgroundImageFix"/>
<feColorMatrix in="SourceAlpha" type="matrix" values="0 0 0 0 0 0 0 0 0 0 0 0 0 0 0 0 0 0 127 0" result="hardAlpha"/>
<feMorphology radius="10" operator="erode" in="SourceAlpha" result="effect1_dropShadow"/>
<feOffset dy="34"/>
<feGaussianBlur stdDeviation="17"/>
<feColorMatrix type="matrix" values="0 0 0 0 0 0 0 0 0 0 0 0 0 0 0 0 0 0 0.11 0"/>
<feBlend mode="normal" in2="BackgroundImageFix" result="effect1_dropShadow"/>
<feBlend mode="normal" in="SourceGraphic" in2="effect1_dropShadow" result="shape"/>
</filter>
<filter id="filter2_d" x="288" y="128" width="296" height="204" filterUnits="userSpaceOnUse" color-interpolation-filters="sRGB">
<feFlood flood-opacity="0" result="BackgroundImageFix"/>
<feColorMatrix in="SourceAlpha" type="matrix" values="0 0 0 0 0 0 0 0 0 0 0 0 0 0 0 0 0 0 127 0" result="hardAlpha"/>
<feMorphology radius="10" operator="erode" in="SourceAlpha" result="effect1_dropShadow"/>
<feOffset dy="34"/>
<feGaussianBlur stdDeviation="17"/>
<feColorMatrix type="matrix" values="0 0 0 0 0 0 0 0 0 0 0 0 0 0 0 0 0 0 0.11 0"/>
<feBlend mode="normal" in2="BackgroundImageFix" result="effect1_dropShadow"/>
<feBlend mode="normal" in="SourceGraphic" in2="effect1_dropShadow" result="shape"/>
</filter>
</defs>
</svg>
