<svg width="43" height="43" viewBox="0 0 43 43" fill="none" xmlns="http://www.w3.org/2000/svg">
<path d="M1.7915 5.37533V8.95866H41.2082V5.37533C41.2082 4.42497 40.8306 3.51353 40.1586 2.84153C39.4866 2.16952 38.5752 1.79199 37.6248 1.79199H5.37484C4.42448 1.79199 3.51304 2.16952 2.84104 2.84153C2.16903 3.51353 1.7915 4.42497 1.7915 5.37533ZM7.1665 7.16699C6.81215 7.16699 6.46574 7.06191 6.17111 6.86504C5.87647 6.66817 5.64683 6.38835 5.51122 6.06097C5.37561 5.73358 5.34013 5.37334 5.40926 5.02579C5.47839 4.67824 5.64903 4.35899 5.8996 4.10843C6.15017 3.85786 6.46942 3.68722 6.81697 3.61808C7.16452 3.54895 7.52476 3.58443 7.85214 3.72004C8.17953 3.85565 8.45935 4.08529 8.65622 4.37993C8.85309 4.67457 8.95817 5.02097 8.95817 5.37533C8.95817 5.8505 8.76941 6.30622 8.4334 6.64222C8.0974 6.97823 7.64168 7.16699 7.1665 7.16699ZM12.5415 7.16699C12.1871 7.16699 11.8407 7.06191 11.5461 6.86504C11.2515 6.66817 11.0218 6.38835 10.8862 6.06097C10.7506 5.73358 10.7151 5.37334 10.7843 5.02579C10.8534 4.67824 11.024 4.35899 11.2746 4.10843C11.5252 3.85786 11.8444 3.68722 12.192 3.61808C12.5395 3.54895 12.8998 3.58443 13.2271 3.72004C13.5545 3.85565 13.8343 4.08529 14.0312 4.37993C14.2281 4.67457 14.3332 5.02097 14.3332 5.37533C14.3318 5.85007 14.1425 6.30496 13.8068 6.64066C13.4711 6.97635 13.0162 7.16557 12.5415 7.16699Z" fill="#3B8D3B"/>
<path d="M1.7915 10.75V35.8333C1.7915 36.7837 2.16903 37.6951 2.84104 38.3671C3.51304 39.0391 4.42448 39.4167 5.37484 39.4167H37.6248C38.5752 39.4167 39.4866 39.0391 40.1586 38.3671C40.8306 37.6951 41.2082 36.7837 41.2082 35.8333V10.75H1.7915ZM21.4998 34.0417C19.1239 34.0417 16.8454 33.0978 15.1653 31.4178C13.4853 29.7378 12.5415 27.4592 12.5415 25.0833C12.5415 22.7074 13.4853 20.4288 15.1653 18.7488C16.8454 17.0688 19.1239 16.125 21.4998 16.125V25.0833H30.4582C30.4582 27.4592 29.5143 29.7378 27.8343 31.4178C26.1543 33.0978 23.8757 34.0417 21.4998 34.0417Z" fill="#3B8D3B"/>
</svg>
