<svg width="64" height="64" viewBox="0 0 64 64" fill="none" xmlns="http://www.w3.org/2000/svg">
<g filter="url(#filter0_b)">
<circle cx="32" cy="32" r="32" fill="url(#paint0_linear)"/>
<circle cx="32" cy="32" r="31.5" stroke="url(#paint1_linear)"/>
</g>
<circle cx="32" cy="32" r="23" fill="#C4227D"/>
<path d="M32.5 23.3125C30.5862 23.3148 28.7514 24.076 27.3981 25.4293C26.0448 26.7826 25.2835 28.6174 25.2813 30.5312C25.279 32.0952 25.7898 33.6168 26.7355 34.8625C26.7355 34.8625 26.9324 35.1217 26.9645 35.1591L32.5 41.6875L38.0381 35.1558C38.067 35.1211 38.2645 34.8625 38.2645 34.8625L38.2652 34.8605C39.2104 33.6154 39.721 32.0945 39.7188 30.5312C39.7165 28.6174 38.9552 26.7826 37.6019 25.4293C36.2487 24.076 34.4138 23.3148 32.5 23.3125ZM32.5 33.1562C31.9808 33.1562 31.4733 33.0023 31.0416 32.7139C30.61 32.4254 30.2735 32.0155 30.0748 31.5358C29.8761 31.0561 29.8242 30.5283 29.9254 30.0191C30.0267 29.5099 30.2767 29.0422 30.6439 28.6751C31.011 28.308 31.4787 28.058 31.9879 27.9567C32.4971 27.8554 33.0249 27.9074 33.5046 28.1061C33.9842 28.3047 34.3942 28.6412 34.6826 29.0729C34.9711 29.5046 35.125 30.0121 35.125 30.5312C35.1241 31.2272 34.8473 31.8944 34.3552 32.3864C33.8631 32.8785 33.1959 33.1554 32.5 33.1562Z" fill="white"/>
<defs>
<filter id="filter0_b" x="-14" y="-14" width="92" height="92" filterUnits="userSpaceOnUse" color-interpolation-filters="sRGB">
<feFlood flood-opacity="0" result="BackgroundImageFix"/>
<feGaussianBlur in="BackgroundImage" stdDeviation="7"/>
<feComposite in2="SourceAlpha" operator="in" result="effect1_backgroundBlur"/>
<feBlend mode="normal" in="SourceGraphic" in2="effect1_backgroundBlur" result="shape"/>
</filter>
<linearGradient id="paint0_linear" x1="-17" y1="2" x2="75" y2="68" gradientUnits="userSpaceOnUse">
<stop stop-color="#E9E9E9"/>
<stop offset="1" stop-color="#B8B8B8" stop-opacity="0"/>
</linearGradient>
<linearGradient id="paint1_linear" x1="-23.5" y1="2" x2="70" y2="64" gradientUnits="userSpaceOnUse">
<stop stop-color="white"/>
<stop offset="1" stop-color="#ABABAB" stop-opacity="0"/>
</linearGradient>
</defs>
</svg>
